HIERARCHY
ROOT newVegas:Hips
{
	OFFSET 0.000000 96.479958 0.000000
	CHANNELS 6 Xposition Yposition Zposition Xrotation Yrotation Zrotation
	JOINT newVegas:Pelvis
	{
		OFFSET 0.000000 0.000000 0.000000
		CHANNELS 3 Xrotation Yrotation Zrotation
		JOINT newVegas:LeftUpLeg
		{
			OFFSET 18.735201 -5.666702 -4.541200
			CHANNELS 3 Xrotation Yrotation Zrotation
			JOINT newVegas:LeftLeg
			{
				OFFSET -0.021200 -31.938179 0.493100
				CHANNELS 3 Xrotation Yrotation Zrotation
				JOINT newVegas:LeftFoot
				{
					OFFSET 0.021200 -31.938179 -4.336299
					CHANNELS 3 Xrotation Yrotation Zrotation
					JOINT newVegas:LeftToeBase
					{
						OFFSET 0.943001 -26.722000 15.023500
						CHANNELS 3 Xrotation Yrotation Zrotation
						End Site
						{
							OFFSET 0.000000 30.670183 0.000000
						}
					}
				}
				JOINT newVegas:Left_PantLeg
				{
					OFFSET 0.663870 -9.044666 -1.108900
					CHANNELS 3 Xrotation Yrotation Zrotation
					End Site
					{
						OFFSET 1.415995 20.635357 0.000000
					}
				}
			}
		}
		JOINT newVegas:RightUpLeg
		{
			OFFSET -18.735201 -5.666702 -4.541200
			CHANNELS 3 Xrotation Yrotation Zrotation
			JOINT newVegas:RightLeg
			{
				OFFSET 0.018946 -31.938133 0.493100
				CHANNELS 3 Xrotation Yrotation Zrotation
				JOINT newVegas:RightFoot
				{
					OFFSET -0.018946 -31.938126 -4.336299
					CHANNELS 3 Xrotation Yrotation Zrotation
					JOINT newVegas:RightToeBase
					{
						OFFSET -0.943001 -26.722004 15.023500
						CHANNELS 3 Xrotation Yrotation Zrotation
						End Site
						{
							OFFSET 0.000000 30.670187 0.000000
						}
					}
				}
				JOINT newVegas:Right_PantLeg
				{
					OFFSET -0.661674 -9.044716 -1.108900
					CHANNELS 3 Xrotation Yrotation Zrotation
					End Site
					{
						OFFSET -1.415958 20.635269 0.000000
					}
				}
			}
		}
	}
	JOINT newVegas:Spine
	{
		OFFSET 0.000000 10.199997 -0.299500
		CHANNELS 3 Xrotation Yrotation Zrotation
		JOINT newVegas:Spine1
		{
			OFFSET 0.000000 11.900002 -1.516600
			CHANNELS 3 Xrotation Yrotation Zrotation
			JOINT newVegas:Spine2
			{
				OFFSET 0.000000 13.600006 -2.842500
				CHANNELS 3 Xrotation Yrotation Zrotation
				JOINT newVegas:Neck
				{
					OFFSET 0.000000 9.624100 -2.890100
					CHANNELS 3 Xrotation Yrotation Zrotation
					JOINT newVegas:Head
					{
						OFFSET 0.000000 14.068802 -1.351900
						CHANNELS 3 Xrotation Yrotation Zrotation
						JOINT newVegas:Hair_Back
						{
							OFFSET 0.000000 3.231903 -17.524799
							CHANNELS 3 Xrotation Yrotation Zrotation
							End Site
							{
								OFFSET 0.000000 19.849884 0.000000
							}
						}
						JOINT newVegas:Hair_Front
						{
							OFFSET 0.000000 31.260406 4.573800
							CHANNELS 3 Xrotation Yrotation Zrotation
							JOINT newVegas:Hair_Front1
							{
								OFFSET 0.000000 2.284103 11.993300
								CHANNELS 3 Xrotation Yrotation Zrotation
								JOINT newVegas:Hair_Front2
								{
									OFFSET 0.000000 2.284103 11.993300
									CHANNELS 3 Xrotation Yrotation Zrotation
									End Site
									{
										OFFSET 0.000000 12.208862 0.000000
									}
								}
							}
						}
						JOINT newVegas:Jowel
						{
							OFFSET 0.000000 -7.458206 6.864100
							CHANNELS 3 Xrotation Yrotation Zrotation
							End Site
							{
								OFFSET 0.000000 19.849884 0.000000
							}
						}
					}
				}
				JOINT newVegas:LeftShoulder
				{
					OFFSET 15.263000 10.923401 -0.547700
					CHANNELS 3 Xrotation Yrotation Zrotation
					JOINT newVegas:LeftArm
					{
						OFFSET 25.438599 -2.830597 -13.032500
						CHANNELS 3 Xrotation Yrotation Zrotation
						JOINT newVegas:LeftForeArm
						{
							OFFSET 29.960503 0.000000 0.000000
							CHANNELS 3 Xrotation Yrotation Zrotation
							JOINT newVegas:LeftHand
							{
								OFFSET 27.849251 0.000000 0.000000
								CHANNELS 3 Xrotation Yrotation Zrotation
								JOINT newVegas:LeftHandThumb1
								{
									OFFSET 4.487587 -3.305161 6.305391
									CHANNELS 3 Xrotation Yrotation Zrotation
									JOINT newVegas:LeftHandThumb2
									{
										OFFSET 5.480453 -3.164139 3.164143
										CHANNELS 3 Xrotation Yrotation Zrotation
										JOINT newVegas:LeftHandThumb3
										{
											OFFSET 5.159721 -2.978973 2.978967
											CHANNELS 3 Xrotation Yrotation Zrotation
											End Site
											{
												OFFSET 2.494507 5.926697 1.738678
											}
										}
									}
								}
								JOINT newVegas:LeftHandIndex1
								{
									OFFSET 18.578728 -0.527832 5.208049
									CHANNELS 3 Xrotation Yrotation Zrotation
									JOINT newVegas:LeftHandIndex2
									{
										OFFSET 3.192009 0.000000 0.000000
										CHANNELS 3 Xrotation Yrotation Zrotation
										JOINT newVegas:LeftHandIndex3
										{
											OFFSET 3.835129 0.000000 0.000000
											CHANNELS 3 Xrotation Yrotation Zrotation
											End Site
											{
												OFFSET -0.034599 3.816971 0.371180
											}
										}
									}
								}
								JOINT newVegas:LeftHandMiddle1
								{
									OFFSET 18.476105 0.000000 0.000000
									CHANNELS 3 Xrotation Yrotation Zrotation
									JOINT newVegas:LeftHandMiddle2
									{
										OFFSET 3.324875 0.000000 0.000000
										CHANNELS 3 Xrotation Yrotation Zrotation
										JOINT newVegas:LeftHandMiddle3
										{
											OFFSET 4.596550 0.000000 0.000000
											CHANNELS 3 Xrotation Yrotation Zrotation
											End Site
											{
												OFFSET 0.057701 4.578827 0.399218
											}
										}
									}
								}
								JOINT newVegas:LeftHandRing1
								{
									OFFSET 17.732719 0.121887 -4.201567
									CHANNELS 3 Xrotation Yrotation Zrotation
									JOINT newVegas:LeftHandRing2
									{
										OFFSET 2.733170 0.000000 0.000000
										CHANNELS 3 Xrotation Yrotation Zrotation
										JOINT newVegas:LeftHandRing3
										{
											OFFSET 3.178268 0.000000 0.000000
											CHANNELS 3 Xrotation Yrotation Zrotation
											End Site
											{
												OFFSET 0.119102 3.170624 0.185394
											}
										}
									}
								}
								JOINT newVegas:LeftHandPinky1
								{
									OFFSET 15.989624 -0.606689 -7.535461
									CHANNELS 3 Xrotation Yrotation Zrotation
									JOINT newVegas:LeftHandPinky2
									{
										OFFSET 2.538986 0.000000 0.000000
										CHANNELS 3 Xrotation Yrotation Zrotation
										JOINT newVegas:LeftHandPinky3
										{
											OFFSET 2.593102 0.000000 0.000000
											CHANNELS 3 Xrotation Yrotation Zrotation
											End Site
											{
												OFFSET -0.150902 2.584198 0.152708
											}
										}
									}
								}
							}
							JOINT newVegas:Left_Sleeve
							{
								OFFSET 0.267448 -0.649796 0.577675
								CHANNELS 3 Xrotation Yrotation Zrotation
								End Site
								{
									OFFSET 0.000000 15.991241 0.000000
								}
							}
							JOINT newVegas:Left_CapeC
							{
								OFFSET 15.715958 -8.608795 -6.935905
								CHANNELS 3 Xrotation Yrotation Zrotation
								JOINT newVegas:Left_CapeC1
								{
									OFFSET 0.000000 -8.688499 0.000000
									CHANNELS 3 Xrotation Yrotation Zrotation
									End Site
									{
										OFFSET 0.000000 8.688499 0.000000
									}
								}
							}
						}
						JOINT newVegas:Left_CapeB
						{
							OFFSET 26.118385 -8.608795 -7.079235
							CHANNELS 3 Xrotation Yrotation Zrotation
							JOINT newVegas:Left_CapeB1
							{
								OFFSET 0.000000 -8.688499 0.000000
								CHANNELS 3 Xrotation Yrotation Zrotation
								End Site
								{
									OFFSET 0.000000 8.688499 0.000000
								}
							}
						}
						JOINT newVegas:Left_CapeA
						{
							OFFSET 5.115639 -8.608795 -10.395809
							CHANNELS 3 Xrotation Yrotation Zrotation
							JOINT newVegas:Left_CapeA1
							{
								OFFSET 0.000000 -8.688499 0.000000
								CHANNELS 3 Xrotation Yrotation Zrotation
								End Site
								{
									OFFSET 0.000000 8.688499 0.000000
								}
							}
						}
					}
				}
				JOINT newVegas:RightShoulder
				{
					OFFSET -15.263000 10.923401 -0.547700
					CHANNELS 3 Xrotation Yrotation Zrotation
					JOINT newVegas:RightArm
					{
						OFFSET -25.438599 -2.830597 -13.032500
						CHANNELS 3 Xrotation Yrotation Zrotation
						JOINT newVegas:RightForeArm
						{
							OFFSET -29.960503 0.000000 0.000000
							CHANNELS 3 Xrotation Yrotation Zrotation
							JOINT newVegas:RightHand
							{
								OFFSET -27.849251 0.000000 0.000000
								CHANNELS 3 Xrotation Yrotation Zrotation
								JOINT newVegas:RightHandThumb1
								{
									OFFSET -4.487587 -3.305161 6.305391
									CHANNELS 3 Xrotation Yrotation Zrotation
									JOINT newVegas:RightHandThumb2
									{
										OFFSET -5.480453 -3.164139 3.164143
										CHANNELS 3 Xrotation Yrotation Zrotation
										JOINT newVegas:RightHandThumb3
										{
											OFFSET -5.159721 -2.978973 2.978967
											CHANNELS 3 Xrotation Yrotation Zrotation
											End Site
											{
												OFFSET -2.494507 5.926697 1.738678
											}
										}
									}
								}
								JOINT newVegas:RightHandIndex1
								{
									OFFSET -18.578728 -0.527832 5.208049
									CHANNELS 3 Xrotation Yrotation Zrotation
									JOINT newVegas:RightHandIndex2
									{
										OFFSET -3.192009 0.000000 0.000000
										CHANNELS 3 Xrotation Yrotation Zrotation
										JOINT newVegas:RightHandIndex3
										{
											OFFSET -3.835129 0.000000 0.000000
											CHANNELS 3 Xrotation Yrotation Zrotation
											End Site
											{
												OFFSET 0.034599 3.816971 0.371180
											}
										}
									}
								}
								JOINT newVegas:RightHandMiddle1
								{
									OFFSET -18.476105 0.000000 0.000000
									CHANNELS 3 Xrotation Yrotation Zrotation
									JOINT newVegas:RightHandMiddle2
									{
										OFFSET -3.324875 0.000000 0.000000
										CHANNELS 3 Xrotation Yrotation Zrotation
										JOINT newVegas:RightHandMiddle3
										{
											OFFSET -4.596550 0.000000 0.000000
											CHANNELS 3 Xrotation Yrotation Zrotation
											End Site
											{
												OFFSET -0.057701 4.578827 0.399218
											}
										}
									}
								}
								JOINT newVegas:RightHandRing1
								{
									OFFSET -17.732719 0.121887 -4.201567
									CHANNELS 3 Xrotation Yrotation Zrotation
									JOINT newVegas:RightHandRing2
									{
										OFFSET -2.733170 0.000000 0.000000
										CHANNELS 3 Xrotation Yrotation Zrotation
										JOINT newVegas:RightHandRing3
										{
											OFFSET -3.178268 0.000000 0.000000
											CHANNELS 3 Xrotation Yrotation Zrotation
											End Site
											{
												OFFSET -0.119102 3.170624 0.185394
											}
										}
									}
								}
								JOINT newVegas:RightHandPinky1
								{
									OFFSET -15.989624 -0.606689 -7.535461
									CHANNELS 3 Xrotation Yrotation Zrotation
									JOINT newVegas:RightHandPinky2
									{
										OFFSET -2.538986 0.000000 0.000000
										CHANNELS 3 Xrotation Yrotation Zrotation
										JOINT newVegas:RightHandPinky3
										{
											OFFSET -2.593102 0.000000 0.000000
											CHANNELS 3 Xrotation Yrotation Zrotation
											End Site
											{
												OFFSET 0.150902 2.584198 0.152708
											}
										}
									}
								}
							}
							JOINT newVegas:Right_CapeC
							{
								OFFSET -15.715958 -8.608795 -6.935905
								CHANNELS 3 Xrotation Yrotation Zrotation
								JOINT newVegas:Right_CapeC1
								{
									OFFSET 0.000000 -8.688499 0.000000
									CHANNELS 3 Xrotation Yrotation Zrotation
									End Site
									{
										OFFSET 0.000000 8.688499 0.000000
									}
								}
							}
							JOINT newVegas:Right_Sleeve
							{
								OFFSET -0.267448 -0.649994 0.577675
								CHANNELS 3 Xrotation Yrotation Zrotation
								End Site
								{
									OFFSET 0.000000 15.991302 0.000000
								}
							}
						}
						JOINT newVegas:Right_CapeA
						{
							OFFSET -5.115540 -8.608795 -10.395824
							CHANNELS 3 Xrotation Yrotation Zrotation
							JOINT newVegas:Right_CapeA1
							{
								OFFSET 0.000000 -8.688499 0.000000
								CHANNELS 3 Xrotation Yrotation Zrotation
								End Site
								{
									OFFSET 0.000000 8.688499 0.000000
								}
							}
						}
						JOINT newVegas:Right_CapeB
						{
							OFFSET -26.118187 -8.608795 -7.079266
							CHANNELS 3 Xrotation Yrotation Zrotation
							JOINT newVegas:Right_CapeB1
							{
								OFFSET 0.000000 -8.688499 0.000000
								CHANNELS 3 Xrotation Yrotation Zrotation
								End Site
								{
									OFFSET 0.000000 8.688499 0.000000
								}
							}
						}
					}
				}
				JOINT newVegas:Left_Collar
				{
					OFFSET 18.625099 8.655502 8.828100
					CHANNELS 3 Xrotation Yrotation Zrotation
					JOINT newVegas:Left_Collar1
					{
						OFFSET 14.783401 10.540405 -1.259500
						CHANNELS 3 Xrotation Yrotation Zrotation
						End Site
						{
							OFFSET 0.000000 18.199875 0.000000
						}
					}
				}
				JOINT newVegas:Collar_Back
				{
					OFFSET 0.000000 15.630707 -20.132601
					CHANNELS 3 Xrotation Yrotation Zrotation
					End Site
					{
						OFFSET 0.000000 22.523010 0.000000
					}
				}
				JOINT newVegas:Left_Peck
				{
					OFFSET 17.239599 -5.132599 25.482599
					CHANNELS 3 Xrotation Yrotation Zrotation
					End Site
					{
						OFFSET 0.000000 22.523010 0.000000
					}
				}
				JOINT newVegas:Right_Peck
				{
					OFFSET -17.239599 -5.132202 25.482599
					CHANNELS 3 Xrotation Yrotation Zrotation
					End Site
					{
						OFFSET 0.000000 22.523010 0.000000
					}
				}
				JOINT newVegas:Right_Collar
				{
					OFFSET -18.625099 8.655792 8.828100
					CHANNELS 3 Xrotation Yrotation Zrotation
					JOINT newVegas:Right_Collar1
					{
						OFFSET -14.783401 10.539993 -1.259500
						CHANNELS 3 Xrotation Yrotation Zrotation
						End Site
						{
							OFFSET 0.000000 18.199631 0.000000
						}
					}
				}
			}
		}
		JOINT newVegas:Belly
		{
			OFFSET 0.000000 -6.540398 9.014299
			CHANNELS 3 Xrotation Yrotation Zrotation
			End Site
			{
				OFFSET 0.000000 11.566666 0.000000
			}
		}
	}
	JOINT newVegas:ElvisFacialAnim_Joint
	{
		OFFSET 1.000000 -95.330101 -8.825800
		CHANNELS 3 Xrotation Yrotation Zrotation
		End Site
		{
			OFFSET 0.000000 35.315800 0.000000
		}
	}
}
MOTION
Frames: 4
Frame Time: 0.033333
0.608432 86.919456 4.398691 10.097750 11.788480 -3.439545 0.000001 -0.000001 0.000000 8.311877 3.583475 -6.902085 19.536334 4.945440 0.229583 -28.483233 -1.245683 3.801936 -0.000000 -0.000002 -0.000000 0.000005 -0.000003 0.000002 -52.799777 -2.799595 -1.024528 33.818944 -10.316030 1.258866 8.312925 -14.328374 0.434642 0.000000 0.000000 -0.000000 0.000000 -0.000000 0.000000 5.894682 -7.943923 2.760477 0.140400 -2.240761 0.777361 0.126935 -2.250079 0.776109 -2.471126 -0.616034 -1.123014 -2.471132 -0.616033 -1.123013 0.000001 -0.000000 0.000000 -2.471128 -0.616035 -1.123014 -2.471062 -0.616029 -1.123013 0.000000 0.000000 -0.000000 0.000001 -0.000000 -0.000000 0.609511 -1.901708 -11.225380 -8.231718 -35.251914 -60.178816 0.000011 -52.074916 0.000033 10.666216 -31.842219 2.423566 4.972927 -0.919244 4.455772 7.422175 13.559268 3.774175 0.000003 0.000001 -0.000001 0.332609 -2.971057 -1.456202 0.830599 3.008811 -30.858276 -0.000002 -0.000001 -0.000000 -0.686706 0.199347 -14.655429 0.595562 2.575488 -26.036343 -0.000001 0.000002 -0.000001 0.933435 5.741924 -20.414020 0.491128 2.349920 -23.606375 -0.000000 -0.000001 -0.000001 2.244617 16.205462 -22.664079 0.579228 2.541854 -25.670872 -0.000000 -0.000003 0.000001 -0.000000 0.000002 -0.000004 -0.000000 0.000002 -0.000004 -0.000001 0.000002 -0.000004 -0.000001 0.000002 -0.000000 -0.000001 0.000002 -0.000001 -0.000001 0.000002 -0.000000 -0.000003 0.000002 -0.000000 0.671314 -0.107822 12.339197 15.210611 10.500672 58.867228 0.000002 20.016453 0.000023 -0.817875 1.974614 -0.698100 3.998980 2.832319 -3.864434 7.802582 -15.416791 -4.481839 -0.000001 -0.000001 0.000001 0.387320 3.131513 0.644106 0.662461 -2.395999 30.906633 0.000002 0.000002 0.000000 -0.709927 0.247549 13.910239 0.475062 -2.051030 26.079641 0.000002 -0.000001 -0.000000 0.807604 -5.199877 19.769368 0.391798 -1.871429 23.646682 0.000001 0.000001 0.000002 1.993824 -15.635799 22.197404 0.462061 -2.024242 25.713758 -0.000000 0.000002 -0.000001 -0.000000 0.000001 0.000001 -0.000002 -0.000000 0.000001 -0.000000 0.000001 0.000001 -0.000001 -0.000001 0.000003 -0.000001 0.000000 0.000002 -0.000001 -0.000001 0.000003 -0.000001 0.000000 0.000003 0.000002 0.000000 0.000000 0.000002 0.000000 0.000000 0.000002 0.000000 0.000000 0.000002 0.000000 0.000000 0.000002 0.000000 0.000000 0.000002 0.000000 0.000000 0.000002 0.000000 0.000000 0.000001 0.000000 0.000000 0.000001 -0.000001 0.000000 
1.370220 87.257133 4.019852 8.995179 14.067464 -3.464758 -0.000000 -0.000001 0.000000 13.147338 3.046866 -6.730269 12.559940 2.465682 0.162850 -27.138829 -1.567040 5.065263 -0.000000 -0.000000 -0.000000 0.000001 0.000001 0.000000 -52.263658 -2.097107 -2.432929 33.485416 -9.284145 1.196919 12.441201 -15.916784 1.050752 0.000000 0.000000 -0.000000 -0.000001 0.000000 -0.000000 5.723503 -7.559744 2.340350 -0.048010 -4.671402 1.608491 -0.016042 -2.125539 0.773308 -2.082827 -0.465046 -0.929197 -2.082816 -0.465047 -0.929198 0.000001 -0.000000 0.000000 -2.082826 -0.465050 -0.929196 -2.082827 -0.465044 -0.929199 -0.000000 0.000000 0.000000 0.000001 -0.000000 0.000000 0.612254 -1.792315 -11.142573 -6.657014 -34.967215 -60.768097 -0.000009 -47.035196 -0.000013 11.232424 -28.017784 -0.865039 4.279912 -1.208375 4.593049 7.464259 13.999109 3.820725 0.000000 0.000002 -0.000002 0.342181 -2.876333 -2.347370 0.828127 3.004700 -30.811352 -0.000001 -0.000002 0.000001 -0.695424 0.226233 -14.887476 0.610195 2.605200 -26.359944 0.000000 -0.000001 -0.000000 0.942474 5.755125 -20.566360 0.478461 2.320700 -23.295152 0.000000 -0.000001 0.000000 2.158651 16.195697 -22.553187 0.572103 2.527015 -25.509969 -0.000000 -0.000005 -0.000000 -0.000000 0.000003 -0.000000 -0.000000 0.000003 -0.000000 -0.000001 0.000003 0.000000 0.000003 -0.000001 0.000002 0.000003 0.000000 0.000002 0.000003 -0.000001 0.000002 0.000001 -0.000000 0.000002 0.661562 -0.007275 12.187778 15.174677 11.759974 58.319645 -0.000001 22.891591 -0.000000 -0.170694 2.812481 0.739937 4.149432 2.788156 -4.039869 7.786715 -15.912123 -4.152872 0.000000 0.000003 0.000001 0.402547 3.084287 1.054602 0.665356 -2.400831 30.975895 -0.000001 0.000001 0.000002 -0.714307 0.217007 14.086532 0.487591 -2.076405 26.427464 -0.000000 0.000000 0.000001 0.787947 -5.121328 20.126911 0.395208 -1.879210 23.751141 0.000001 0.000003 -0.000002 1.984632 -15.427558 22.571735 0.463456 -2.027144 25.753339 0.000001 0.000003 -0.000001 -0.000002 -0.000000 0.000001 -0.000002 -0.000001 0.000000 -0.000002 0.000000 0.000000 0.000003 -0.000001 -0.000001 0.000003 0.000000 -0.000002 0.000003 -0.000001 -0.000001 0.000003 -0.000000 -0.000002 0.000000 -0.000000 -0.000000 0.000000 -0.000000 -0.000000 0.000000 -0.000000 -0.000000 0.000000 -0.000000 -0.000000 0.000000 -0.000000 -0.000000 0.000000 -0.000000 -0.000000 0.000000 -0.000000 -0.000000 0.000001 0.000000 0.000000 -0.000000 -0.000001 0.000000 
1.083755 87.477211 2.440296 7.875590 16.204048 -3.040083 -0.000000 0.000001 0.000000 14.554404 2.936685 -6.247081 10.484680 0.104441 0.122328 -27.471931 -1.736057 5.519728 -0.000000 0.000000 -0.000000 0.000001 -0.000002 0.000000 -52.294292 -1.471266 -3.917623 31.552988 -7.804399 1.384259 19.157644 -17.373505 1.824344 0.000000 -0.000001 0.000000 -0.000000 -0.000000 -0.000000 5.650183 -7.128206 1.912082 -0.103361 -6.874938 2.345233 -0.084723 -1.989479 0.733939 -1.650920 -0.308378 -0.731833 -1.650916 -0.308378 -0.731833 0.000000 0.000000 -0.000000 -1.650839 -0.308377 -0.731834 -1.650919 -0.308378 -0.731832 0.000000 -0.000000 0.000000 0.000000 0.000000 -0.000000 0.615117 -1.548981 -11.124724 -5.268730 -33.880600 -61.448111 -0.000015 -41.706737 -0.000023 12.380923 -23.266259 -4.681033 3.565860 -1.506645 4.730617 7.507436 14.453748 3.868586 0.000001 0.000000 -0.000004 0.353547 -2.777124 -3.284565 0.825969 3.001085 -30.770193 0.000001 -0.000003 0.000001 -0.704482 0.254637 -15.132236 0.626079 2.636951 -26.707078 0.000001 0.000001 -0.000000 0.950369 5.764709 -20.726685 0.465689 2.290823 -22.977446 -0.000000 0.000001 0.000000 2.072297 16.184145 -22.434736 0.565074 2.512190 -25.349484 -0.000001 -0.000002 0.000001 0.000003 -0.000002 -0.000001 0.000003 -0.000002 -0.000001 0.000002 -0.000001 -0.000001 -0.000001 0.000000 -0.000000 -0.000001 0.000000 -0.000000 -0.000001 0.000000 -0.000000 -0.000002 0.000000 -0.000000 0.648573 0.223334 11.936105 15.002321 12.249557 58.069449 0.000001 27.678770 0.000006 -1.897873 2.944991 0.996032 4.302151 2.729565 -4.220203 7.769575 -16.419696 -3.826649 -0.000002 -0.000001 0.000001 0.418314 3.035755 1.479329 0.668591 -2.406215 31.053301 -0.000001 0.000001 -0.000002 -0.718635 0.186079 14.265461 0.500386 -2.101947 26.778568 -0.000001 -0.000000 -0.000000 0.767123 -5.042776 20.488536 0.398706 -1.887116 23.857369 0.000001 -0.000001 -0.000002 1.968052 -15.217504 22.963492 0.465087 -2.030499 25.799243 -0.000001 -0.000000 -0.000001 -0.000002 0.000000 -0.000000 -0.000002 0.000000 0.000000 -0.000002 0.000000 -0.000000 0.000000 0.000002 0.000002 0.000000 0.000003 0.000002 0.000000 0.000002 0.000002 0.000000 0.000003 0.000002 0.000000 0.000000 0.000000 0.000000 0.000000 0.000000 0.000000 0.000000 0.000000 0.000000 0.000000 0.000000 0.000000 0.000000 0.000000 0.000000 0.000000 0.000000 0.000000 0.000000 0.000000 -0.000000 -0.000000 -0.000000 -0.000000 0.000001 0.000000 
0.142478 87.646729 0.072787 6.990088 17.735273 -2.622653 -0.000000 0.000001 -0.000000 12.755850 3.148758 -5.603553 12.868443 -1.561541 0.110735 -29.306436 -1.876907 5.557115 0.000000 -0.000002 0.000000 -0.000000 -0.000000 0.000001 -53.353879 -1.557840 -6.127594 36.347053 -6.298031 1.929750 19.484513 -16.159235 4.957975 0.000000 0.000000 0.000000 0.000000 0.000000 -0.000000 5.514070 -6.325555 1.702152 -0.077144 -7.722956 2.637469 -0.076560 -1.765030 0.664157 -1.165834 -0.148288 -0.554585 -1.165831 -0.148289 -0.554586 0.000000 0.000000 -0.000000 -1.165762 -0.148289 -0.554585 -1.165839 -0.148288 -0.554586 -0.000000 0.000000 0.000000 0.000000 0.000000 -0.000000 0.619454 -1.211599 -11.187585 -3.688114 -31.883818 -62.361840 -0.000010 -36.535604 -0.000017 14.384150 -18.292975 -7.975511 2.830686 -1.814239 4.867807 7.551670 14.923195 3.917733 0.000001 0.000000 0.000001 0.366906 -2.673355 -4.267810 0.824121 2.997963 -30.734772 0.000001 0.000002 0.000001 -0.710716 0.296231 -15.388566 0.643221 2.670742 -27.077727 0.000000 -0.000003 -0.000002 0.957001 5.770467 -20.895027 0.452798 2.260244 -22.653318 0.000000 0.000003 0.000001 1.985558 16.170751 -22.308791 0.558084 2.497396 -25.189523 -0.000001 -0.000003 0.000000 -0.000001 0.000001 -0.000001 -0.000001 0.000001 -0.000001 -0.000002 0.000001 -0.000001 0.000002 0.000000 0.000001 0.000002 0.000000 0.000001 0.000002 0.000000 0.000001 0.000000 -0.000000 0.000000 0.628025 0.678018 11.494869 14.990537 11.720470 58.009452 0.000002 34.319494 -0.000015 -4.565561 1.848978 0.348326 4.457187 2.655855 -4.405580 7.751081 -16.940075 -3.503330 0.000001 -0.000003 -0.000003 0.434635 2.985838 1.918991 0.672213 -2.412198 31.139181 0.000001 0.000000 -0.000000 -0.722913 0.154723 14.447232 0.513473 -2.127644 27.133174 -0.000001 0.000002 0.000001 0.745102 -4.964202 20.854502 0.402275 -1.895152 23.965418 0.000002 0.000001 -0.000001 1.942296 -15.006171 23.373090 0.466942 -2.034349 25.851745 0.000002 0.000003 -0.000001 -0.000001 0.000001 -0.000000 -0.000001 -0.000001 0.000000 -0.000001 0.000001 -0.000000 0.000001 -0.000001 -0.000000 0.000001 0.000000 -0.000000 0.000001 -0.000001 -0.000000 0.000001 -0.000000 -0.000000 0.000000 0.000000 -0.000000 0.000000 0.000000 -0.000000 0.000000 0.000000 -0.000000 0.000000 0.000000 -0.000000 0.000000 0.000000 -0.000000 0.000000 0.000000 -0.000000 0.000000 0.000000 -0.000000 0.000001 -0.000000 0.000000 -0.000000 0.000001 -0.000000 
